<svg width="64px" height="64px" viewBox="0 0 512 512" xmlns="http://www.w3.org/2000/svg" fill="#0056b3" stroke="#0056b3"><g id="SVGRepo_bgCarrier" stroke-width="0"></g><g id="SVGRepo_tracerCarrier" stroke-linecap="round" stroke-linejoin="round"></g><g id="SVGRepo_iconCarrier"> <polygon fill="var(--ci-primary-color, #0056b3)" points="48 48 176 48 176 16 16 16 16 176 48 176 48 48" class="ci-primary"></polygon> <path fill="var(--ci-primary-color, #0056b3)" d="M176,176V80H80v96h96Zm-64-64h32v32H112Z" class="ci-primary"></path> <polygon fill="var(--ci-primary-color, #0056b3)" points="328 48 464 48 464 176 496 176 496 16 328 16 328 48" class="ci-primary"></polygon> <path fill="var(--ci-primary-color, #0056b3)" d="M432,176V80H336v96h96Zm-64-64h32v32H368Z" class="ci-primary"></path> <polygon fill="var(--ci-primary-color, #0056b3)" points="176 464 48 464 48 336 16 336 16 496 176 496 176 464" class="ci-primary"></polygon> <path fill="var(--ci-primary-color, #0056b3)" d="M176,336H80v96h96V336Zm-32,64H112V368h32Z" class="ci-primary"></path> <polygon fill="var(--ci-primary-color, #0056b3)" points="464 464 328 464 328 496 496 496 496 336 464 336 464 464" class="ci-primary"></polygon> <polygon fill="var(--ci-primary-color, #0056b3)" points="272 304 400 304 400 368 432 368 432 272 272 272 272 304" class="ci-primary"></polygon> <polygon fill="var(--ci-primary-color, #0056b3)" points="432 432 432 400 240 400 240 272 80 272 80 304 208 304 208 432 432 432" class="ci-primary"></polygon> <rect width="32" height="96" x="208" y="80" fill="var(--ci-primary-color, #0056b3)" class="ci-primary"></rect> <polygon fill="var(--ci-primary-color, #0056b3)" points="80 240 304 240 304 80 272 80 272 208 80 208 80 240" class="ci-primary"></polygon> <rect width="96" height="32" x="336" y="208" fill="var(--ci-primary-color, #0056b3)" class="ci-primary"></rect> <rect width="32" height="32" x="336" y="336" fill="var(--ci-primary-color, #0056b3)" class="ci-primary"></rect> <rect width="32" height="32" x="272" y="336" fill="var(--ci-primary-color, #0056b3)" class="ci-primary"></rect> </g></svg>